<svg width="52" height="60" viewBox="0 0 52 60" fill="none" xmlns="http://www.w3.org/2000/svg">
<path d="M25.9229 0.00106757C25.599 0.0170849 25.2849 0.116706 25.0111 0.290361L1.31086 15.116C0.759993 15.4583 0.424805 16.0607 0.424805 16.7092C0.424805 17.3577 0.759998 17.9603 1.31086 18.3025L9.38678 23.3531L1.31086 28.4182C0.766644 28.7618 0.436556 29.3605 0.436556 30.0041C0.436556 30.6477 0.766674 31.2464 1.31086 31.59L9.39378 36.6516L1.31086 41.7097C0.761593 42.0521 0.427755 42.6537 0.427755 43.3011C0.427755 43.9484 0.761583 44.5499 1.31086 44.8924L25.0111 59.7181C25.308 59.9023 25.6504 60 25.9998 60C26.3493 60 26.6917 59.9023 26.9886 59.7181L50.6888 44.8924H50.689C51.2382 44.5498 51.5721 43.9484 51.5721 43.3011C51.5721 42.6537 51.2383 42.0521 50.689 41.7097L42.6061 36.6516L50.689 31.59C51.2332 31.2464 51.5633 30.6477 51.5633 30.0041C51.5633 29.3605 51.2332 28.7618 50.689 28.4182L42.6131 23.3531L50.689 18.3025C51.2398 17.9603 51.575 17.3577 51.575 16.7092C51.575 16.0607 51.2398 15.4582 50.689 15.116L26.9888 0.290361C26.6708 0.0891676 26.2992 -0.0116289 25.9231 0.00106757H25.9229ZM25.9926 4.08473L46.1474 16.7092L38.163 21.7157C38.1345 21.7296 38.1063 21.7443 38.0788 21.7595L26.0069 29.3339L13.9205 21.76C13.9084 21.7537 13.8963 21.7475 13.884 21.7416L5.85209 16.7091L25.9926 4.08473ZM12.9246 25.5692L25.011 33.1395C25.3079 33.3237 25.6503 33.4214 25.9997 33.4214C26.3492 33.4214 26.6916 33.3237 26.9885 33.1395L39.0749 25.5692L46.1767 30.0117L38.2178 34.9855C38.1703 35.0103 38.1238 35.0373 38.0787 35.066L26.0068 42.6218L5.83704 29.9969L12.9246 25.5692ZM12.9209 38.8607L25.0108 46.4311H25.011C25.3079 46.6153 25.6503 46.7129 25.9997 46.7129C26.3492 46.7129 26.6916 46.6153 26.9885 46.4311L39.0784 38.8607L46.1617 43.2997L26.0069 55.9246L5.85208 43.2997L12.9209 38.8607Z" fill="black"/>
</svg>
