<svg width="20" height="16" viewBox="0 0 20 16" fill="none" xmlns="http://www.w3.org/2000/svg">
<path d="M16.7538 15.0183H3.24614C2.60379 15.0175 1.98803 14.762 1.53379 14.3078C1.07964 13.8536 0.824195 13.2377 0.823486 12.5954V3.40381C0.824195 2.76146 1.07964 2.14564 1.53379 1.69146C1.988 1.23724 2.60375 0.981732 3.24614 0.980957H16.7538H16.7538C17.3961 0.98173 18.0119 1.23724 18.4661 1.69146C18.9203 2.14567 19.1757 2.76149 19.1764 3.40381V12.5954C19.1757 13.2378 18.9203 13.8536 18.4661 14.3078C18.0119 14.762 17.3962 15.0175 16.7538 15.0183H16.7538ZM2.99914 13.7557C3.08036 13.7729 3.16312 13.7816 3.24614 13.7816H16.7538H16.7538C16.8368 13.7816 16.9196 13.7729 17.0008 13.7557L11.9279 8.85771C11.4562 9.43849 10.748 9.77586 9.99984 9.77598C9.2516 9.77617 8.54317 9.43918 8.07132 8.8586L2.99914 13.7557ZM12.8182 7.99848L17.8995 12.904V12.9041C17.9265 12.8035 17.9401 12.6997 17.9399 12.5956V3.40395C17.9401 3.30006 17.9265 3.19662 17.8995 3.09627C16.7217 4.23386 14.1692 6.69411 12.8182 7.99853V7.99848ZM2.10067 3.09573C2.07368 3.19627 2.06009 3.29991 2.06022 3.40399V12.5956C2.06009 12.6998 2.07368 12.8035 2.10067 12.9042L7.18067 7.99964C5.7128 6.5827 3.21234 4.16915 2.10067 3.0959V3.09573ZM2.99859 2.24373C4.62956 3.81884 9.0417 8.0771 9.17212 8.20241V8.20235C9.39189 8.4198 9.6883 8.54205 9.9974 8.54269C10.3066 8.5434 10.6035 8.42244 10.8242 8.20603C10.8898 8.09595 16.0591 3.18522 17.002 2.24371C16.9204 2.22645 16.8372 2.21776 16.7538 2.21776H3.2461C3.16289 2.21769 3.07993 2.22645 2.99851 2.24371L2.99859 2.24373Z" fill="#0D4F8C" stroke="#0D4F8C" stroke-width="0.564706" stroke-linejoin="round"/>
</svg>
