<svg width="60" height="60" viewBox="0 0 60 60" fill="none" xmlns="http://www.w3.org/2000/svg">
<path d="M6.13932 46.9683C6.44018 46.9683 6.74419 46.8847 7.01654 46.7105C7.76902 46.2249 7.98624 45.2212 7.5013 44.4687C4.98634 40.5657 3.52782 36.0457 3.28378 31.4001C2.9749 25.5061 4.58183 19.8076 7.84251 15.0097L8.3355 18.4942C8.45057 19.3041 9.14457 19.8887 9.93925 19.8887C10.0146 19.8887 10.0917 19.8839 10.1688 19.8725C11.0557 19.7468 11.6726 18.9264 11.547 18.0394L10.5199 10.7866C10.5158 10.7597 10.5061 10.7355 10.5004 10.7086C10.4899 10.6527 10.4762 10.5976 10.4599 10.5425C10.4445 10.4931 10.4282 10.4452 10.4088 10.3981C10.3885 10.3495 10.3657 10.3016 10.3406 10.2545C10.3146 10.2066 10.2878 10.1597 10.2578 10.1152C10.2302 10.0738 10.2011 10.0341 10.1694 9.99524C10.132 9.949 10.0923 9.90615 10.0509 9.86476C10.0324 9.84703 10.0193 9.82591 9.99985 9.80797C9.98359 9.7934 9.96417 9.78369 9.94706 9.76996C9.89998 9.73111 9.85058 9.69543 9.79948 9.66208C9.76148 9.63695 9.72411 9.61352 9.68442 9.59156C9.63016 9.56242 9.57421 9.53814 9.51657 9.51449C9.47688 9.49908 9.43866 9.48282 9.39812 9.46995C9.33816 9.45137 9.27651 9.43743 9.21317 9.4254C9.17264 9.41801 9.1321 9.40998 9.09156 9.40597C9.0316 9.39943 8.97079 9.39795 8.90915 9.39795C8.86059 9.39795 8.81351 9.39964 8.76473 9.40365C8.73876 9.40618 8.71364 9.40281 8.68682 9.40682L1.44314 10.4276C0.556194 10.5524 -0.0615891 11.3729 0.0632107 12.2598C0.187989 13.1468 1.01183 13.7645 1.89478 13.6389L5.16368 13.1785C1.50162 18.561 -0.302865 24.9563 0.0437529 31.5693C0.316956 36.7791 1.95218 41.8473 4.77285 46.2242C5.08553 46.7056 5.60683 46.9682 6.13948 46.9682L6.13932 46.9683Z" fill="black"/>
<path d="M46.7112 52.9867C46.2265 52.2342 45.2228 52.0163 44.4694 52.5028C40.5674 55.0177 36.0486 56.4754 31.402 56.7195C25.5068 57.0324 19.8084 55.4232 15.0094 52.1607L18.4947 51.6669C19.3816 51.5413 19.9985 50.7208 19.8729 49.8339C19.7473 48.9469 18.9235 48.3292 18.0399 48.4556L10.787 49.4828C10.7594 49.4868 10.7342 49.4974 10.7068 49.5022C10.6525 49.5128 10.5989 49.5256 10.5455 49.5419C10.4952 49.5573 10.4467 49.5744 10.3988 49.5938C10.3502 49.6141 10.3031 49.6361 10.2569 49.6612C10.2083 49.6872 10.1621 49.714 10.1175 49.744C10.0761 49.7716 10.0365 49.8016 9.99761 49.833C9.95221 49.8704 9.90914 49.9093 9.86797 49.9506C9.84939 49.9692 9.82828 49.9832 9.81034 50.0034C9.79492 50.0205 9.78521 50.04 9.77064 50.0577C9.73327 50.102 9.70076 50.1483 9.6693 50.1962C9.64101 50.2393 9.61335 50.2813 9.58991 50.3258C9.56563 50.3721 9.54452 50.4191 9.52425 50.4677C9.50399 50.5171 9.48372 50.5659 9.4683 50.617C9.45373 50.6655 9.44318 50.7151 9.43262 50.7654C9.42206 50.8188 9.41235 50.8716 9.40665 50.9259C9.4018 50.9753 9.40095 51.0247 9.40011 51.0751C9.39926 51.1328 9.40095 51.1902 9.40665 51.2478C9.40919 51.2706 9.40581 51.2924 9.40919 51.3152L10.43 58.5599C10.5442 59.3698 11.2382 59.9553 12.0338 59.9553C12.1091 59.9553 12.1854 59.9504 12.2616 59.939C13.1485 59.8142 13.7663 58.9938 13.6415 58.1069L13.1819 54.8453C18.1265 58.2082 23.9269 60 29.9652 60C30.4988 60 31.0355 59.9863 31.5721 59.9578C36.7828 59.6846 41.8501 58.0494 46.2271 55.2279C46.9795 54.7435 47.1962 53.739 46.7112 52.9867L46.7112 52.9867Z" fill="black"/>
<path d="M59.9563 28.4293C59.6831 23.2195 58.0479 18.1513 55.2272 13.7744C54.7425 13.0213 53.7396 12.8047 52.9854 13.2888C52.233 13.7744 52.0157 14.7782 52.5007 15.5306C55.0157 19.4336 56.4742 23.9537 56.7182 28.5992C57.0271 34.4933 55.4202 40.1917 52.1595 44.9896L51.6665 41.5051C51.5409 40.6182 50.7171 40.0004 49.8335 40.1269C48.9465 40.2525 48.3296 41.073 48.4552 41.9599L49.4824 49.2128C49.4864 49.2428 49.4969 49.2696 49.5026 49.2987C49.5115 49.3458 49.522 49.392 49.5358 49.438C49.552 49.4923 49.5706 49.5451 49.5917 49.597C49.6088 49.6384 49.6249 49.6789 49.6451 49.7186C49.6728 49.7729 49.7043 49.824 49.7376 49.8742C49.7604 49.9082 49.7807 49.9424 49.8058 49.9747C49.8503 50.0324 49.8998 50.0835 49.9508 50.1344C49.9694 50.1521 49.9834 50.1732 50.0028 50.1911C50.0068 50.1952 50.0117 50.1977 50.0165 50.2009C50.0693 50.2471 50.1259 50.2859 50.1844 50.3256C50.2086 50.3419 50.2306 50.3622 50.2557 50.3767C50.3279 50.4198 50.405 50.4553 50.4835 50.4878C50.5175 50.5015 50.5517 50.5121 50.5866 50.5235C50.6554 50.5463 50.7253 50.568 50.7973 50.5817C50.8646 50.594 50.9334 50.5972 51.0025 50.6003C51.0308 50.602 51.0584 50.6083 51.0867 50.6083H51.0876H51.0884H51.0916C51.1653 50.6083 51.24 50.6035 51.3145 50.5929L58.5582 49.5721C59.4452 49.4473 60.0629 48.6269 59.9381 47.7399C59.8133 46.853 58.9895 46.2321 58.1066 46.3608L54.8377 46.8213C58.4984 41.4377 60.3031 35.0434 59.9561 28.4294L59.9563 28.4293Z" fill="black"/>
<path d="M49.2681 10.505C49.3209 10.4961 49.3712 10.4816 49.4223 10.467C49.4782 10.4516 49.5333 10.4362 49.5869 10.415C49.6332 10.3965 49.6769 10.3745 49.7214 10.3517C49.7765 10.324 49.8293 10.2949 49.8804 10.2618C49.9193 10.2358 49.9566 10.2075 49.9931 10.1782C50.0451 10.1368 50.0945 10.0931 50.1407 10.046C50.1578 10.0283 50.1781 10.016 50.195 9.99743C50.2104 9.98033 50.2201 9.9609 50.2347 9.94317C50.271 9.89862 50.3035 9.85238 50.3358 9.80446C50.3641 9.76139 50.3918 9.71937 50.4152 9.67483C50.4403 9.62859 50.4606 9.58087 50.4809 9.5321C50.5011 9.48354 50.5206 9.43477 50.536 9.38368C50.5505 9.33512 50.5611 9.28487 50.5716 9.23441C50.5822 9.18099 50.5919 9.12821 50.5976 9.0748C50.6025 9.02539 50.6033 8.97599 50.6042 8.92553C50.605 8.86789 50.6033 8.81046 50.5976 8.75283C50.5951 8.73002 50.5985 8.70828 50.5951 8.68548L49.5743 1.44071C49.4495 0.553763 48.6273 -0.067155 47.7427 0.0615904C46.8557 0.186368 46.238 1.0068 46.3628 1.89375L46.8232 5.16265C41.4398 1.49973 35.0448 -0.307134 28.4319 0.0427272C23.2212 0.31593 18.1539 1.95115 13.777 4.77269C13.0245 5.25744 12.8073 6.26115 13.2922 7.01449C13.7778 7.76761 14.7815 7.9857 15.534 7.4984C19.4361 4.98343 23.9549 3.52578 28.6015 3.28169C34.5015 2.97027 40.1967 4.57887 44.9941 7.84042L41.5088 8.33425C40.6218 8.45987 40.0049 9.28033 40.1305 10.1673C40.2456 10.9772 40.9396 11.5618 41.7343 11.5618C41.8097 11.5618 41.8867 11.5569 41.9638 11.5455L49.2167 10.5184C49.2346 10.5154 49.2506 10.5083 49.2686 10.5049L49.2681 10.505Z" fill="black"/>
</svg>
