<svg width="14" height="10" viewBox="0 0 14 10" fill="none" xmlns="http://www.w3.org/2000/svg">
<path d="M13.7448 3.52785C13.7461 3.4912 13.7504 3.45533 13.7504 3.41816C13.7504 3.40571 13.7485 3.3937 13.7485 3.38151C13.7488 3.35705 13.7504 3.33293 13.7504 3.30847L13.7448 3.31219C13.6885 1.6749 12.3467 0.36409 10.6962 0.36409C9.00933 0.36409 7.64214 1.73135 7.64214 3.41818C7.64214 4.9572 8.78181 6.22687 10.2627 6.43775C9.89443 7.6579 8.76349 8.54561 7.42285 8.54561V9.63591C10.8465 9.63557 13.6293 6.92259 13.745 3.52774L13.7448 3.52785Z" fill="#0D4F8C"/>
<path d="M6.57172 3.52785C6.57301 3.4912 6.57733 3.45533 6.57733 3.41816C6.57733 3.40571 6.57543 3.3937 6.57543 3.38151C6.57569 3.35705 6.57733 3.33293 6.57733 3.30847L6.57172 3.31219C6.51544 1.6749 5.17368 0.36409 3.52316 0.36409C1.83626 0.36409 0.469067 1.73135 0.469067 3.41818C0.469067 4.9572 1.60874 6.22687 3.08967 6.43775C2.72162 7.6579 1.59077 8.54561 0.25 8.54561V9.63591C3.6734 9.63557 6.45576 6.92259 6.57194 3.52774L6.57172 3.52785Z" fill="#0D4F8C"/>
</svg>
