<svg width="14" height="14" viewBox="0 0 14 14" fill="none" xmlns="http://www.w3.org/2000/svg">
<path d="M11.5 9.2498C10.9243 9.2498 10.4039 9.47351 10.0056 9.8304L6.15032 7.72802C6.20927 7.49359 6.25005 7.2523 6.25005 6.99988C6.25005 6.7474 6.20932 6.50611 6.15032 6.27174L10.0056 4.16936C10.4039 4.52625 10.9243 4.74996 11.5 4.74996C12.7407 4.74996 13.75 3.74069 13.75 2.49998C13.75 1.25927 12.7407 0.25 11.5 0.25C10.2593 0.25 9.25003 1.25927 9.25003 2.49998C9.25003 2.62103 9.26731 2.73758 9.28577 2.85353L5.4326 4.95486C4.88487 4.37063 4.11232 4.00003 3.24997 4.00003C1.59549 4.00003 0.25 5.3455 0.25 7C0.25 8.6545 1.59547 9.99997 3.24997 9.99997C4.11229 9.99997 4.88481 9.62937 5.4326 9.04514L9.28577 11.1465C9.26725 11.2624 9.25003 11.379 9.25003 11.5C9.25003 12.7407 10.2593 13.75 11.5 13.75C12.7407 13.75 13.75 12.7407 13.75 11.5C13.75 10.2593 12.7407 9.25004 11.5 9.25004V9.2498ZM11.5 1.74987C11.9139 1.74987 12.25 2.08601 12.25 2.49986C12.25 2.91371 11.9139 3.24985 11.5 3.24985C11.0862 3.24985 10.75 2.91371 10.75 2.49986C10.75 2.08601 11.0862 1.74987 11.5 1.74987ZM3.25008 8.49981C2.42315 8.49981 1.75009 7.82675 1.75009 6.99982C1.75009 6.17289 2.42315 5.49983 3.25008 5.49983C4.07701 5.49983 4.75007 6.17289 4.75007 6.99982C4.75007 7.82675 4.07701 8.49981 3.25008 8.49981ZM11.5 12.2498C11.0862 12.2498 10.75 11.9136 10.75 11.4998C10.75 11.0859 11.0862 10.7498 11.5 10.7498C11.9139 10.7498 12.25 11.0859 12.25 11.4998C12.25 11.9136 11.9139 12.2498 11.5 12.2498Z" fill="#0D4F8C"/>
</svg>
