<svg width="12" height="12" viewBox="0 0 12 12" fill="none" xmlns="http://www.w3.org/2000/svg">
<path d="M11.9998 8.2499V9.74985C11.9992 10.3464 11.7619 10.9183 11.3401 11.3401C10.9183 11.7619 10.3464 11.9991 9.74989 11.9998H2.25016C1.65363 11.9991 1.08173 11.7619 0.65992 11.3401C0.23812 10.9183 0.000874118 10.3464 0.000244141 9.74985V8.2499C0.000244141 7.98197 0.143207 7.73435 0.37523 7.60041C0.607257 7.46641 0.893177 7.46641 1.1252 7.60041C1.35723 7.73435 1.50019 7.98197 1.50019 8.2499V9.74985C1.50037 9.94871 1.57946 10.1393 1.72008 10.2799C1.8607 10.4205 2.0513 10.4996 2.25016 10.4998H9.74989C9.94875 10.4996 10.1393 10.4205 10.28 10.2799C10.4206 10.1393 10.4997 9.94871 10.4999 9.74985V8.2499C10.4999 7.98197 10.6428 7.73435 10.8748 7.60041C11.1069 7.46641 11.3928 7.46641 11.6248 7.60041C11.8568 7.73435 11.9998 7.98197 11.9998 8.2499ZM5.46949 8.78016L5.46961 8.78034L5.48578 8.79557H5.48584C5.51988 8.8217 5.55621 8.84479 5.59435 8.86442C5.63296 8.89471 5.67457 8.92107 5.71845 8.94304C5.8985 9.01886 6.10146 9.01886 6.28151 8.9431C6.32557 8.92107 6.36729 8.89459 6.40602 8.86412C6.44405 8.84455 6.4802 8.82164 6.51412 8.79557L6.53029 8.78034L6.53041 8.78016L8.76398 6.67424L8.76404 6.67418C8.90934 6.53795 8.99447 6.34952 9.00068 6.15043C9.00684 5.95139 8.93354 5.75804 8.79696 5.61309C8.66038 5.46813 8.47171 5.38346 8.27262 5.37778C8.07354 5.37215 7.88036 5.44592 7.73575 5.58291L6.74994 6.51211V0.75022C6.74994 0.482284 6.60698 0.234673 6.37495 0.100728C6.14293 -0.0332709 5.85701 -0.0332709 5.62498 0.100728C5.39296 0.234669 5.25 0.482284 5.25 0.75022V6.51211L4.26419 5.58291V5.58285C4.11958 5.44592 3.9264 5.37209 3.72731 5.37778C3.52822 5.3834 3.33955 5.46807 3.20298 5.61303C3.0664 5.75799 2.9931 5.95134 2.99925 6.15043C3.00546 6.34947 3.0906 6.53796 3.2359 6.67412L5.46949 8.78016Z" fill="#0D4F8C"/>
</svg>
