<svg width="62" height="62" viewBox="0 0 62 62" fill="none" xmlns="http://www.w3.org/2000/svg">
<path d="M22.9513 31.0002C22.9513 35.4454 26.5548 39.049 31 39.049C35.4453 39.049 39.0488 35.4454 39.0488 31.0002C39.0488 26.555 35.4453 22.9514 31 22.9514C26.5548 22.9514 22.9513 26.555 22.9513 31.0002Z" fill="black" stroke="black"/>
<path d="M31.7313 12.6561V18.561C31.7313 18.9635 31.4021 19.2927 30.9996 19.2927C30.5971 19.2927 30.2679 18.9635 30.2679 18.561V12.6561C27.3849 12.2976 25.146 9.83171 25.146 6.85366C25.146 3.62671 27.7727 1 30.9996 1C34.2266 1 36.8533 3.62671 36.8533 6.85366C36.8533 9.83171 34.6143 12.2976 31.7313 12.6561ZM30.9996 2.46341C28.5777 2.46341 26.6094 4.43177 26.6094 6.85366C26.6094 9.27555 28.5777 11.2439 30.9996 11.2439C33.4215 11.2439 35.3899 9.27555 35.3899 6.85366C35.3899 4.43177 33.4215 2.46341 30.9996 2.46341Z" fill="black" stroke="black"/>
<path d="M12.6564 30.2684H18.5613C18.9638 30.2684 19.293 30.5976 19.293 31.0001C19.293 31.4027 18.9638 31.7319 18.5613 31.7319H12.6564C12.2979 34.6148 9.83199 36.8538 6.85394 36.8538C3.62699 36.8538 1.00029 34.2271 1.00029 31.0001C1.00029 27.7732 3.62699 25.1465 6.85394 25.1465C9.83199 25.1465 12.2979 27.3854 12.6564 30.2684ZM2.4637 31.0001C2.4637 33.422 4.43205 35.3904 6.85394 35.3904C9.27584 35.3904 11.2442 33.422 11.2442 31.0001C11.2442 28.5783 9.27584 26.6099 6.85394 26.6099C4.43205 26.6099 2.4637 28.5783 2.4637 31.0001Z" fill="black" stroke="black"/>
<path d="M55.1463 36.8538C52.1683 36.8538 49.7024 34.6148 49.3439 31.7319H43.439C43.0365 31.7319 42.7073 31.4027 42.7073 31.0001C42.7073 30.5976 43.0365 30.2684 43.439 30.2684H49.3439C49.7024 27.3854 52.1683 25.1465 55.1463 25.1465C58.3733 25.1465 61 27.7732 61 31.0001C61 34.2271 58.3733 36.8538 55.1463 36.8538ZM55.1463 26.6099C52.7245 26.6099 50.7561 28.5783 50.7561 31.0001C50.7561 33.422 52.7245 35.3904 55.1463 35.3904C57.5682 35.3904 59.5366 33.422 59.5366 31.0001C59.5366 28.5783 57.5682 26.6099 55.1463 26.6099Z" fill="black" stroke="black"/>
<path d="M30.9996 42.7073C31.4021 42.7073 31.7313 43.0364 31.7313 43.439V49.3439C34.6143 49.7023 36.8533 52.1683 36.8533 55.1463C36.8533 58.3733 34.2266 61 30.9996 61C27.7727 61 25.146 58.3733 25.146 55.1463C25.146 52.1683 27.3849 49.7023 30.2679 49.3439V43.439C30.2679 43.0364 30.5971 42.7073 30.9996 42.7073ZM26.6094 55.1463C26.6094 57.5682 28.5777 59.5365 30.9996 59.5365C33.4215 59.5365 35.3899 57.5682 35.3899 55.1463C35.3899 52.7244 33.4215 50.7561 30.9996 50.7561C28.5777 50.7561 26.6094 52.7244 26.6094 55.1463Z" fill="black" stroke="black"/>
<path d="M51.4807 15.6343C50.2147 15.6343 48.949 15.2246 47.8953 14.405L39.5831 22.7172C39.4368 22.8634 39.2539 22.9294 39.0636 22.9294C38.8733 22.9294 38.6904 22.8563 38.5441 22.7172C38.2588 22.4318 38.2588 21.971 38.5441 21.6854L46.8636 13.3732C46.0662 12.3487 45.627 11.1049 45.627 9.78774C45.627 8.22189 46.2344 6.75109 47.3391 5.64616C48.444 4.54122 49.9145 3.93408 51.4806 3.93408C53.0465 3.93408 54.5173 4.54145 55.6222 5.64616C57.9052 7.92914 57.9052 11.6389 55.6222 13.9218C54.4806 15.0708 52.9808 15.6341 51.4806 15.6341L51.4807 15.6343ZM54.5833 6.68548C53.7566 5.85872 52.6516 5.39762 51.481 5.39762C50.3103 5.39762 49.2053 5.85136 48.3786 6.68548C47.5518 7.51225 47.0907 8.61719 47.0907 9.78786C47.0907 10.9585 47.5445 12.0635 48.3786 12.8902C50.0906 14.6023 52.8786 14.6023 54.5908 12.8902C56.2955 11.1784 56.2955 8.3978 54.5834 6.68536L54.5833 6.68548Z" fill="black" stroke="black"/>
<path d="M21.4731 22.9366C21.2828 22.9366 21.0999 22.8634 20.9536 22.7243L12.6414 14.4121C11.5877 15.2317 10.322 15.6414 9.05601 15.6414C7.55589 15.6414 6.05607 15.0707 4.91442 13.9293C2.63144 11.6463 2.63144 7.93659 4.91442 5.65372C6.01936 4.54878 7.48991 3.94165 9.05601 3.94165C10.6219 3.94165 12.0927 4.54902 13.1976 5.65372C14.3025 6.75866 14.9097 8.22921 14.9097 9.79531C14.9097 11.1125 14.4707 12.3563 13.673 13.3807L21.9925 21.685C22.2779 21.9704 22.2779 22.4312 21.9925 22.7168C21.8461 22.8631 21.6631 22.9364 21.473 22.9364L21.4731 22.9366ZM12.1585 6.68534C11.3317 5.85857 10.2268 5.39747 9.0561 5.39747C7.88543 5.39747 6.78049 5.85122 5.95372 6.68534C4.24165 8.39741 4.24165 11.1854 5.95372 12.8975C7.66579 14.6096 10.4538 14.6096 12.1659 12.8975C12.9927 12.0708 13.4538 10.9658 13.4538 9.79516C13.4535 8.62449 12.9853 7.51235 12.1585 6.6854L12.1585 6.68534Z" fill="black" stroke="black"/>
<path d="M38.5441 39.2755C38.8294 38.9902 39.2903 38.9902 39.5759 39.2755L47.8954 47.595C50.193 45.8096 53.5149 45.9706 55.6222 48.0781C57.9052 50.3611 57.9052 54.0708 55.6222 56.3537C54.5173 57.4586 53.0467 58.0658 51.4806 58.0658C49.9148 58.0658 48.444 57.4584 47.3391 56.3537C46.2341 55.2488 45.627 53.7782 45.627 52.2121C45.627 50.8949 46.066 49.6511 46.8636 48.6267L38.5514 40.3145C38.2589 40.0291 38.2589 39.5609 38.5443 39.2755L38.5441 39.2755ZM48.3782 55.3146C49.205 56.1413 50.3099 56.6024 51.4806 56.6024C52.6513 56.6024 53.7562 56.1487 54.583 55.3146C56.295 53.6025 56.295 50.8145 54.583 49.1024C53.7269 48.2463 52.6 47.8219 51.4806 47.8219C50.3538 47.8219 49.2342 48.2463 48.3782 49.1024C47.5514 49.9291 47.0903 51.0341 47.0903 52.2047C47.0903 53.3754 47.5515 54.4875 48.3782 55.3145V55.3146Z" fill="black" stroke="black"/>
<path d="M13.673 48.6267C14.4704 49.6511 14.9096 50.8949 14.9096 52.2121C14.9096 53.778 14.3022 55.2488 13.1975 56.3537C12.0926 57.4586 10.622 58.0658 9.05593 58.0658C7.49008 58.0658 6.01929 57.4584 4.91435 56.3537C2.63136 54.0707 2.63136 50.361 4.91435 48.0781C7.02161 45.9708 10.3436 45.8172 12.6412 47.595L20.9534 39.2755C21.2387 38.9902 21.6996 38.9902 21.9852 39.2755C22.2706 39.5609 22.2706 40.0218 21.9852 40.3074L13.673 48.6267ZM12.1583 49.1097C11.3023 48.2537 10.1754 47.8292 9.05593 47.8292C7.9291 47.8292 6.8096 48.2537 5.95356 49.1097C4.24149 50.8218 4.24149 53.6098 5.95356 55.3219C6.78033 56.1487 7.88526 56.6098 9.05593 56.6098C10.2266 56.6098 11.3315 56.156 12.1583 55.3219C12.9851 54.4952 13.4462 53.3902 13.4462 52.2196C13.4462 51.0489 12.9851 49.9366 12.1583 49.1098V49.1097Z" fill="black" stroke="black"/>
</svg>
