<svg width="13" height="13" viewBox="0 0 13 13" fill="none" xmlns="http://www.w3.org/2000/svg">
<path d="M12.8749 3.19699C12.8749 4.03248 12.552 4.81783 11.9645 5.4083L9.78634 7.60005C9.6307 7.75666 9.42681 7.83496 9.22293 7.83496C9.01905 7.83496 8.81516 7.75665 8.65952 7.60005C8.34825 7.28684 8.34825 6.77942 8.65952 6.4662L10.8377 4.27446C11.124 3.98629 11.2812 3.60417 11.2812 3.19698C11.2812 2.79054 11.124 2.40766 10.8377 2.12032C10.2657 1.54319 9.26883 1.54399 8.69697 2.12032L6.51884 4.31206C6.20757 4.62528 5.7033 4.62528 5.39203 4.31206C5.08076 3.99885 5.08076 3.49143 5.39203 3.17822L7.57017 0.986468C8.74367 -0.195923 10.7911 -0.194368 11.9645 0.986468C12.5513 1.57688 12.875 2.36149 12.875 3.19698L12.8749 3.19699ZM6.48143 8.658L4.30282 10.8497C3.73089 11.4261 2.734 11.4261 2.16214 10.8497C1.87615 10.5623 1.71895 10.1795 1.71895 9.77308C1.71895 9.36589 1.87651 8.98377 2.16214 8.6956L4.34075 6.50386C4.65202 6.19064 4.65202 5.68322 4.34075 5.37001C4.02948 5.05679 3.52522 5.05679 3.21395 5.37001L1.03534 7.56176C0.448211 8.15217 0.125244 8.93753 0.125244 9.77307C0.125244 10.6086 0.448593 11.3933 1.03534 11.9836C1.62208 12.574 2.40257 12.8997 3.23259 12.8997C4.06251 12.8997 4.84304 12.574 5.42985 11.9836L7.60846 9.79183C7.91973 9.47862 7.91973 8.9712 7.60846 8.65798C7.29719 8.34477 6.79293 8.34477 6.48166 8.65798L6.48143 8.658ZM7.02617 4.82184L4.84755 7.01439C4.53629 7.3276 4.53629 7.83502 4.84755 8.14824C5.00319 8.30485 5.20708 8.38314 5.41097 8.38314C5.61485 8.38314 5.81873 8.30484 5.97438 8.14824L8.15299 5.95569C8.46426 5.64247 8.46426 5.13505 8.15299 4.82184C7.84172 4.50863 7.33744 4.50863 7.02617 4.82184Z" fill="#0D4F8C"/>
</svg>
