<svg width="24" height="24" viewBox="0 0 24 24" fill="none" xmlns="http://www.w3.org/2000/svg">
<g clip-path="url(#clip0_3796_2520)">
<path d="M24 12C24 18.6281 18.6281 24 12 24C5.37188 24 0 18.6281 0 12C0 5.37188 5.37188 0 12 0C18.6281 0 24 5.37188 24 12Z" fill="#A6CE39"/>
<path d="M8.09063 17.4561H6.64688V7.41543H8.09063V17.4561Z" fill="white"/>
<path d="M10.2094 7.41543H14.1094C17.8219 7.41543 19.4531 10.0686 19.4531 12.4404C19.4531 15.0186 17.4375 17.4654 14.1281 17.4654H10.2094V7.41543ZM11.6531 16.1623H13.95C17.2219 16.1623 17.9719 13.6779 17.9719 12.4404C17.9719 10.4248 16.6875 8.71855 13.875 8.71855H11.6531V16.1623Z" fill="white"/>
<path d="M8.31562 5.3248C8.31562 5.84043 7.89375 6.27168 7.36875 6.27168C6.84375 6.27168 6.42188 5.84043 6.42188 5.3248C6.42188 4.7998 6.84375 4.37793 7.36875 4.37793C7.89375 4.37793 8.31562 4.80918 8.31562 5.3248Z" fill="white"/>
</g>
<defs>
<clipPath id="clip0_3796_2520">
<rect width="24" height="24" fill="white"/>
</clipPath>
</defs>
</svg>
